<?xml version="1.0" encoding="utf-8"?>
<!-- Generator: Adobe Illustrator 27.7.0, SVG Export Plug-In . SVG Version: 6.00 Build 0)  -->
<svg version="1.1" id="_レイヤー_8" xmlns="http://www.w3.org/2000/svg" xmlns:xlink="http://www.w3.org/1999/xlink" x="0px"
	 y="0px" viewBox="0 0 1000 1000" style="enable-background:new 0 0 1000 1000;" xml:space="preserve">
<style type="text/css">
	.st0{fill:#181818;}
</style>
<path class="st0" d="M966.5,131.9v-80c0-27.2-18.8-49.6-42.5-50.7C912.6,0.7,652.7-10.3,500,38C347.3-10.3,87.4,0.7,76.1,1.2
	C52.3,2.3,33.5,24.7,33.5,51.9v80C14.2,137.4,0,157.4,0,181.1v732.5c0,13.7,4.9,26.9,13.5,36.4c8.6,9.5,20.4,14.7,32.2,14.2
	c2.9-0.1,294.6-10.6,443.1,33.9c3.7,1.1,7.4,1.6,11.2,1.6s7.5-0.5,11.2-1.6c148.3-44.5,440.2-34,443.1-33.9
	c12.1,0.3,23.6-5.3,32.2-14.8s13.5-23.3,13.5-37.1V181.1C1000,157.4,985.8,137.4,966.5,131.9L966.5,131.9z M461.3,829.7
	c-99.8-23.4-227.6-27.7-308-27.7c-11.4,0-21.9,0.1-31.2,0.2V101.5c75.3-1,233.9,0.8,339.2,29.8V829.7z M877.9,802.3
	c-74.8-1-225.2,0.8-339.2,27.5V131.4c105.2-29,263.8-30.9,339.2-29.8V802.3L877.9,802.3z M662,304.6l-48.6-0.2l-0.2,50.7l48.6,0.2
	L662,304.6z M760.3,465.6l48.6,0.2L809,415l-48.6-0.2L760.3,465.6z M808.9,188H613.3v50.7h195.7V188L808.9,188z M808.9,304.6H698.7
	v50.7h110.2V304.6z M613.3,465.6h110.2v-50.7H613.3V465.6z M698.7,698.6h110.2v-50.7H698.7V698.6z M613.2,698.5l48.6,0.2l0.1-50.7
	l-48.6-0.2L613.2,698.5z M613.3,582.1h195.7v-50.7H613.3L613.3,582.1L613.3,582.1z M338,465.6l48.6,0.2l0.1-50.7l-48.6-0.2
	L338,465.6L338,465.6z M386.7,188H191.1v50.7h195.7V188L386.7,188z M239.7,304.6l-48.6-0.2l-0.1,50.7l48.6,0.2L239.7,304.6
	L239.7,304.6z M239.7,647.9l-48.6-0.2l-0.1,50.7l48.6,0.2L239.7,647.9z M191.1,582.1h195.7v-50.7H191.1V582.1z M276.5,698.6h110.2
	v-50.7H276.5V698.6z M191.1,465.6h110.2v-50.7H191.1V465.6z M386.7,304.6H276.5v50.7h110.2V304.6z"/>
</svg>
