<?xml version="1.0" encoding="utf-8"?>
<!-- Generator: Adobe Illustrator 27.7.0, SVG Export Plug-In . SVG Version: 6.00 Build 0)  -->
<svg version="1.1" id="_レイヤー_2" xmlns="http://www.w3.org/2000/svg" xmlns:xlink="http://www.w3.org/1999/xlink" x="0px"
	 y="0px" viewBox="0 0 1000 1000" style="enable-background:new 0 0 1000 1000;" xml:space="preserve">
<style type="text/css">
	.st0{fill:#181818;}
</style>
<path class="st0" d="M943,905.4H578.8v-77.9h248.3c31.5,0,57-21.2,57-47.3s-25.5-47.3-57-47.3H578.8v-53.2c0-9.2-9-18-20.1-19.3
	c-75.2-9-151-12.7-226.7-11.6c-33.4-27.1-54.2-64.8-54.2-106.6c0-51.1,31.1-96.2,78.4-123.1c28.4,17.3,63.4,27.7,101.4,27.7
	c31.6,0,61-7.2,86.4-19.5v48.2c0,9.2,4,23.5,8.9,31.8l37.4,63c4.9,8.3,18,15,29.1,15h132.2c11.1,0,24.2-6.8,29.1-15l37.4-63
	c4.9-8.3,8.9-22.6,8.9-31.8V131.7c0-9.2-9.1-16.8-20.2-16.8h-35.3V71c0-39.2-38.3-71-85.5-71c-47.2,0-85.5,31.8-85.5,71v43.9h-36.4
	c-11.1,0-20.2,7.5-20.2,16.8v49.5c-25.4-12.3-54.9-19.5-86.4-19.5c-67.7,0-126,32.6-154,79.9C162.9,291.4,64.1,407.4,64.1,542.1
	c0,69.1,26.1,133.3,70.4,186.1v177.1H57c-31.5,0-57,21.2-57,47.3s25.5,47.3,57,47.3h886c31.5,0,57-21.2,57-47.3
	S974.5,905.4,943,905.4L943,905.4z M457.6,253.9c33.5,0,60.6,22.5,60.6,50.3s-27.1,50.3-60.6,50.3S397,331.9,397,304.2
	S424.1,253.9,457.6,253.9L457.6,253.9z M457.6,830.4c-33.5,0-60.6-22.5-60.6-50.3s27.1-50.3,60.6-50.3s60.6,22.5,60.6,50.3
	S491,830.4,457.6,830.4L457.6,830.4z"/>
</svg>
